<?xml version="1.0" encoding="iso-8859-1"?>
<!-- Generator: Adobe Illustrator 19.0.0, SVG Export Plug-In . SVG Version: 6.00 Build 0)  -->
<svg version="1.1" id="Layer_1" xmlns="http://www.w3.org/2000/svg" xmlns:xlink="http://www.w3.org/1999/xlink" x="0px" y="0px"
	 viewBox="0 0 512 512" style="enable-background:new 0 0 512 512;" xml:space="preserve">
<path style="fill:#C3DFF7;" d="M432.153,239.772c-4.124-2.381-8.126-4.199-12.101-5.828c0.998-5.705,1.595-11.816,1.614-18.406
	c0.172-60.865-42.596-134.972-95.564-165.553c-26.649-15.386-50.786-16.811-68.22-6.68l-34.206,19.879
	c-4.523-4.167-9.302-7.794-14.273-10.664c-13.998-8.082-26.677-8.834-35.832-3.514l-36.869,21.427
	c-17.026-6.617-32.273-6.047-43.926,0.727l-69.411,40.337c0.046-0.027,0.097-0.048,0.143-0.076
	C9.05,119.739,0.073,137.529,0,162.851c-0.144,50.836,35.605,112.756,79.821,138.284l282.399,163.043
	c22.37,12.916,42.62,14.041,57.201,5.442c-0.07,0.041-0.13,0.099-0.201,0.14l69.411-40.337c14.38-8.357,23.296-26.126,23.368-51.381
	C512.144,327.235,476.394,265.314,432.153,239.772z"/>
<path style="fill:#D2E7F8;" d="M256.691,90.322c52.968,30.581,95.737,104.688,95.564,165.553c-0.019,6.59-0.615,12.7-1.614,18.406
	c3.976,1.63,7.977,3.447,12.101,5.828c44.241,25.542,79.99,87.463,79.846,138.27c-0.144,50.837-36.127,71.342-80.368,45.799
	L79.821,301.136C35.606,275.607-0.143,213.688,0,162.851c0.144-50.808,36.127-71.313,80.343-45.785
	c3.118,1.801,6.161,3.818,9.179,5.965c0.001-0.462-0.048-0.925-0.046-1.387c0.09-31.964,22.7-44.848,50.517-28.788
	c9.08,5.242,17.548,12.939,24.903,22.02C177.172,77.036,213.658,65.477,256.691,90.322z"/>
<g>
</g>
<g>
</g>
<g>
</g>
<g>
</g>
<g>
</g>
<g>
</g>
<g>
</g>
<g>
</g>
<g>
</g>
<g>
</g>
<g>
</g>
<g>
</g>
<g>
</g>
<g>
</g>
<g>
</g>
</svg>
