<?xml version="1.0" encoding="iso-8859-1"?>
<!-- Generator: Adobe Illustrator 19.0.0, SVG Export Plug-In . SVG Version: 6.00 Build 0)  -->
<svg version="1.1" id="Layer_1" xmlns="http://www.w3.org/2000/svg" xmlns:xlink="http://www.w3.org/1999/xlink" x="0px" y="0px"
	 viewBox="0 0 511.999 511.999" style="enable-background:new 0 0 511.999 511.999;" xml:space="preserve">
<g>
	<path style="fill:#59A4FF;" d="M357.81,398.177l-22.901,13.309c-1.501,1.29-30.02,25.799-30.074,44.784
		c-0.054,18.975,13.288,42.093,29.801,51.627c8.552,4.937,16.27,5.256,21.738,1.792c-0.154,0.097-0.302,0.202-0.459,0.292
		l22.901-13.309c5.369-3.12,8.697-9.755,8.724-19.183C387.595,458.506,359.3,401.194,357.81,398.177z"/>
	<path style="fill:#59A4FF;" d="M213.209,341.223c-1.502,1.29-30.028,25.794-30.083,44.779
		c-0.053,18.975,13.288,42.093,29.809,51.631c8.549,4.935,16.267,5.254,21.736,1.789c-0.152,0.097-0.302,0.201-0.459,0.292
		l22.901-13.309c5.369-3.12,8.698-9.753,8.725-19.181c0.054-18.984-28.241-76.296-29.731-79.313L213.209,341.223z"/>
	<path style="fill:#59A4FF;" d="M91.907,271.188c-1.502,1.29-30.028,25.794-30.083,44.779
		c-0.053,18.975,13.288,42.093,29.809,51.631c8.549,4.936,16.268,5.254,21.737,1.789c-0.154,0.097-0.302,0.202-0.46,0.292
		l22.901-13.309c5.369-3.12,8.698-9.753,8.725-19.18c0.054-18.984-28.241-76.296-29.731-79.313L91.907,271.188z"/>
</g>
<g>
	<path style="fill:#9BC9FD;" d="M334.911,411.486c1.489,3.016,29.784,60.327,29.731,79.313
		c-0.054,18.975-13.482,26.637-30.004,17.098c-16.513-9.534-29.854-32.652-29.801-51.627
		C304.891,437.285,333.41,412.776,334.911,411.486z"/>
	<path style="fill:#9BC9FD;" d="M183.127,386.001c0.054-18.984,28.581-43.489,30.083-44.779
		c1.489,3.016,29.784,60.327,29.731,79.313c-0.053,18.975-13.49,26.633-30.003,17.099
		C196.414,428.094,183.073,404.977,183.127,386.001z"/>
	<path style="fill:#9BC9FD;" d="M61.825,315.967c0.054-18.984,28.581-43.489,30.083-44.779c1.489,3.016,29.784,60.327,29.731,79.313
		c-0.054,18.975-13.49,26.633-30.004,17.098C75.112,358.06,61.771,334.942,61.825,315.967z"/>
</g>
<path style="fill:#C3DFF7;" d="M406.43,173.306c-3.522-2.034-6.938-3.586-10.334-4.978c0.852-4.872,1.362-10.091,1.379-15.718
	c0.147-51.978-36.376-115.263-81.61-141.379c-22.758-13.139-43.37-14.356-58.258-5.705l-29.212,16.976
	c-3.862-3.558-7.943-6.656-12.189-9.108c-11.954-6.902-22.782-7.544-30.6-3.001l-31.485,18.298
	c-14.54-5.651-27.56-5.164-37.512,0.62L57.333,63.758c0.04-0.023,0.083-0.042,0.122-0.065
	c-12.348,7.105-20.014,22.298-20.075,43.923c-0.123,43.413,30.405,96.291,68.165,118.091L346.71,364.943
	c19.104,11.03,36.396,11.99,48.849,4.647c-0.06,0.036-0.112,0.085-0.171,0.119l59.275-34.447
	c12.28-7.137,19.895-22.311,19.956-43.878C474.74,247.997,444.212,195.119,406.43,173.306z"/>
<path style="fill:#D2E7F8;" d="M256.589,45.679c45.234,26.116,81.758,89.401,81.61,141.379c-0.016,5.628-0.525,10.846-1.379,15.718
	c3.396,1.391,6.812,2.943,10.334,4.978c37.781,21.813,68.31,74.691,68.187,118.08c-0.123,43.413-30.851,60.925-68.633,39.112
	L105.547,225.708c-37.76-21.8-68.289-74.678-68.166-118.091c0.123-43.388,30.851-60.9,68.611-39.1
	c2.663,1.537,5.262,3.261,7.838,5.094c0.001-0.395-0.041-0.79-0.04-1.184c0.077-27.297,19.385-38.299,43.141-24.585
	c7.754,4.477,14.985,11.049,21.267,18.805C188.681,34.332,219.84,24.46,256.589,45.679z"/>
<g>
</g>
<g>
</g>
<g>
</g>
<g>
</g>
<g>
</g>
<g>
</g>
<g>
</g>
<g>
</g>
<g>
</g>
<g>
</g>
<g>
</g>
<g>
</g>
<g>
</g>
<g>
</g>
<g>
</g>
</svg>
