<?xml version="1.0" encoding="iso-8859-1"?>
<!-- Generator: Adobe Illustrator 19.0.0, SVG Export Plug-In . SVG Version: 6.00 Build 0)  -->
<svg version="1.1" id="Layer_1" xmlns="http://www.w3.org/2000/svg" xmlns:xlink="http://www.w3.org/1999/xlink" x="0px" y="0px"
	 viewBox="0 0 511.999 511.999" style="enable-background:new 0 0 511.999 511.999;" xml:space="preserve">
<g>
	<path style="fill:#59A4FF;" d="M184.07,273.376c-2.31-4.006-5.347-7.095-8.387-8.851c-3.04-1.756-6.084-2.176-8.409-0.846
		l-44.973,25.62l-21.078,12.249c-4.651,2.66-4.676,11.295-0.054,19.308c2.315,4.004,5.352,7.092,8.393,8.848
		c3.041,1.756,6.085,2.179,8.41,0.854l44.966-25.624l21.078-12.249C188.674,290.029,188.698,281.385,184.07,273.376z"/>
	<path style="fill:#59A4FF;" d="M273.181,324.824c-2.31-4.007-5.347-7.095-8.387-8.851c-3.041-1.756-6.086-2.178-8.416-0.851
		l-44.966,25.624l-21.078,12.249c-4.651,2.659-4.676,11.295-0.054,19.308c2.315,4.004,5.35,7.091,8.39,8.846
		c3.04,1.756,6.084,2.179,8.413,0.855l44.966-25.624l21.078-12.249C277.785,341.477,277.81,332.832,273.181,324.824z"/>
	<path style="fill:#59A4FF;" d="M362.293,376.273c-2.315-4.009-5.352-7.099-8.393-8.854c-3.041-1.756-6.085-2.177-8.41-0.847
		l-44.966,25.624l-21.078,12.249c-4.659,2.655-4.684,11.291-0.054,19.308c2.31,4.002,5.346,7.089,8.387,8.845
		c3.041,1.756,6.086,2.18,8.416,0.857l44.966-25.624l0,0l21.078-12.249C366.889,392.922,366.913,384.277,362.293,376.273z"/>
</g>
<g>
	<path style="fill:#9BC9FD;" d="M154.604,276.774c3.04,1.756,6.077,4.845,8.387,8.851c4.628,8.009,4.604,16.654-0.054,19.308
		l-44.966,25.624c-2.326,1.325-5.369,0.902-8.41-0.854s-6.079-4.844-8.393-8.848c-4.621-8.013-4.597-16.649,0.054-19.308
		l44.973-25.62C148.52,274.598,151.564,275.02,154.604,276.774z"/>
	<path style="fill:#9BC9FD;" d="M243.715,328.223c3.041,1.756,6.077,4.845,8.387,8.851c4.628,8.009,4.604,16.654-0.054,19.308
		l-44.966,25.624c-2.329,1.323-5.373,0.9-8.413-0.855c-3.04-1.756-6.076-4.842-8.39-8.846c-4.621-8.013-4.597-16.649,0.054-19.308
		l44.966-25.624C237.628,326.045,240.674,326.467,243.715,328.223z"/>
	<path style="fill:#9BC9FD;" d="M341.214,388.522c4.621,8.005,4.597,16.649-0.054,19.308l-44.966,25.624
		c-2.329,1.323-5.375,0.899-8.416-0.857c-3.041-1.756-6.077-4.842-8.387-8.845c-4.628-8.017-4.604-16.654,0.054-19.308
		l44.966-25.624c2.326-1.33,5.369-0.909,8.41,0.847C335.862,381.424,338.9,384.514,341.214,388.522z"/>
</g>
<g>
	<path style="fill:#59A4FF;" d="M160.461,351.144c-2.31-4.007-5.347-7.095-8.387-8.851c-3.04-1.756-6.084-2.177-8.409-0.846
		l-44.973,25.62l-21.078,12.249c-4.651,2.659-4.676,11.295-0.054,19.308c2.315,4.004,5.352,7.092,8.393,8.848
		c3.041,1.756,6.085,2.179,8.41,0.854l44.966-25.624l21.078-12.249C165.066,367.797,165.091,359.153,160.461,351.144z"/>
	<path style="fill:#59A4FF;" d="M249.573,402.593c-2.31-4.006-5.347-7.095-8.387-8.851c-3.041-1.756-6.086-2.178-8.416-0.851
		l-44.966,25.624l-21.078,12.249c-4.651,2.659-4.676,11.295-0.054,19.308c2.315,4.004,5.35,7.091,8.39,8.846
		c3.04,1.756,6.084,2.179,8.413,0.855l44.966-25.624l21.078-12.249C254.177,419.246,254.203,410.601,249.573,402.593z"/>
	<path style="fill:#59A4FF;" d="M338.685,454.042c-2.315-4.009-5.352-7.099-8.393-8.854c-3.041-1.756-6.085-2.177-8.41-0.847
		l-44.966,25.624l-21.078,12.249c-4.659,2.655-4.684,11.291-0.054,19.308c2.31,4.002,5.346,7.089,8.387,8.845
		c3.041,1.756,6.086,2.18,8.416,0.857l44.966-25.624l0,0l21.078-12.249C343.282,470.691,343.306,462.045,338.685,454.042z"/>
</g>
<g>
	<path style="fill:#9BC9FD;" d="M130.997,354.543c3.04,1.756,6.077,4.845,8.387,8.851c4.628,8.009,4.604,16.653-0.054,19.308
		l-44.966,25.624c-2.326,1.325-5.369,0.902-8.41-0.854c-3.041-1.756-6.079-4.844-8.393-8.848
		c-4.621-8.013-4.597-16.649,0.054-19.308l44.973-25.62C124.913,352.367,127.957,352.788,130.997,354.543z"/>
	<path style="fill:#9BC9FD;" d="M220.108,405.991c3.041,1.756,6.077,4.845,8.387,8.851c4.628,8.009,4.604,16.654-0.054,19.308
		l-44.966,25.624c-2.329,1.323-5.373,0.9-8.413-0.855c-3.04-1.756-6.076-4.842-8.39-8.846c-4.621-8.013-4.597-16.649,0.054-19.308
		l44.966-25.624C214.021,403.814,217.067,404.236,220.108,405.991z"/>
	<path style="fill:#9BC9FD;" d="M317.607,466.291c4.621,8.005,4.597,16.649-0.054,19.308l-44.966,25.624
		c-2.329,1.323-5.375,0.899-8.416-0.857c-3.041-1.756-6.077-4.842-8.387-8.845c-4.628-8.017-4.604-16.654,0.054-19.308
		l44.966-25.624c2.326-1.33,5.369-0.909,8.41,0.848C312.255,459.193,315.292,462.283,317.607,466.291z"/>
</g>
<path style="fill:#C3DFF7;" d="M401.837,168.013c-3.415-1.972-6.727-3.477-10.018-4.826c0.827-4.723,1.321-9.782,1.337-15.238
	c0.143-50.39-35.265-111.743-79.118-137.062c-22.064-12.737-42.048-13.917-56.48-5.53l-28.319,16.457
	c-3.744-3.449-7.7-6.453-11.817-8.829c-11.589-6.691-22.086-7.314-29.665-2.909l-30.524,17.739
	c-14.096-5.478-26.718-5.005-36.366,0.601L63.4,61.812c0.039-0.023,0.079-0.04,0.118-0.063
	c-11.97,6.889-19.402,21.617-19.462,42.581c-0.119,42.088,29.477,93.352,66.084,114.486L343.939,353.8
	c18.52,10.692,35.285,11.624,47.357,4.505c-0.059,0.034-0.108,0.082-0.166,0.116l57.466-33.396
	c11.905-6.919,19.287-21.63,19.347-42.538C468.06,240.424,438.463,189.161,401.837,168.013z"/>
<path style="fill:#D2E7F8;" d="M256.57,44.283c43.853,25.319,79.261,86.672,79.118,137.062c-0.016,5.456-0.51,10.515-1.337,15.238
	c3.292,1.349,6.603,2.854,10.018,4.826c36.628,21.147,66.224,72.41,66.105,114.474c-0.119,42.088-29.91,59.065-66.537,37.917
	L110.14,218.816c-36.607-21.135-66.203-72.399-66.084-114.486c0.119-42.064,29.91-59.041,66.516-37.906
	c2.582,1.491,5.101,3.161,7.599,4.939c0.001-0.382-0.04-0.766-0.039-1.148c0.075-26.463,18.793-37.13,41.823-23.834
	c7.517,4.34,14.527,10.712,20.618,18.231C190.736,33.284,220.943,23.714,256.57,44.283z"/>
<g>
	<polygon style="fill:#C3DFF7;" points="398.643,451.242 392.787,425.918 369.091,423.965 370.815,395.827 347.481,382.355 
		330.267,392.36 325.083,386.83 301.939,400.279 295.965,418.772 319.276,440.547 303.748,458.448 320.806,481.149 339.49,470.29 
		350.716,498.417 367.839,495.45 390.983,482 381.932,460.953 	"/>
	<polygon style="fill:#C3DFF7;" points="269.77,354.894 246.074,352.941 247.799,324.804 224.464,311.332 207.248,321.336 
		202.059,315.801 178.916,329.251 172.942,347.744 196.252,369.519 180.732,387.423 197.782,410.121 216.469,399.261 
		227.692,427.39 244.823,424.426 267.966,410.977 258.91,389.925 275.62,380.214 	"/>
	<polygon style="fill:#C3DFF7;" points="146.746,283.866 123.05,281.913 124.774,253.776 101.441,240.303 84.226,250.308 
		79.042,244.778 55.899,258.227 49.918,276.717 73.228,298.491 57.708,316.396 74.765,339.097 93.448,328.239 104.669,356.362 
		121.799,353.398 144.942,339.949 135.891,318.903 152.603,309.19 	"/>
</g>
<g>
	<polygon style="fill:#D2E7F8;" points="375.5,464.691 352.471,459.712 367.839,495.45 350.716,498.417 336.002,461.553 
		320.806,481.149 303.748,458.448 319.276,440.547 295.965,418.772 301.939,400.279 325.898,425.839 324.338,395.805 
		347.672,409.277 345.948,437.414 369.643,439.367 	"/>
	<polygon style="fill:#D2E7F8;" points="246.626,368.344 252.476,393.664 229.447,388.684 244.823,424.426 227.692,427.39 
		212.985,390.53 197.782,410.121 180.732,387.423 196.252,369.519 172.942,347.744 178.916,329.251 202.88,354.814 201.321,324.781 
		224.656,338.253 222.93,366.391 	"/>
	<polygon style="fill:#D2E7F8;" points="123.603,297.316 129.46,322.639 106.43,317.66 121.799,353.398 104.669,356.362 
		89.962,319.501 74.765,339.097 57.708,316.396 73.228,298.491 49.918,276.717 55.899,258.227 79.857,283.787 78.297,253.753 
		101.631,267.225 99.907,295.362 	"/>
</g>
<g>
</g>
<g>
</g>
<g>
</g>
<g>
</g>
<g>
</g>
<g>
</g>
<g>
</g>
<g>
</g>
<g>
</g>
<g>
</g>
<g>
</g>
<g>
</g>
<g>
</g>
<g>
</g>
<g>
</g>
</svg>
