<?xml version="1.0" encoding="iso-8859-1"?>
<!-- Generator: Adobe Illustrator 19.0.0, SVG Export Plug-In . SVG Version: 6.00 Build 0)  -->
<svg version="1.1" id="Layer_1" xmlns="http://www.w3.org/2000/svg" xmlns:xlink="http://www.w3.org/1999/xlink" x="0px" y="0px"
	 viewBox="0 0 512 512" style="enable-background:new 0 0 512 512;" xml:space="preserve">
<g style="enable-background:new    ;">
	<polygon style="fill:#FF9911;" points="261.748,397.516 290.498,380.808 174.828,495.292 146.078,512 	"/>
	<polygon style="fill:#FFEB9A;" points="205.855,365.246 234.607,348.539 290.498,380.808 261.748,397.516 	"/>
	<polygon style="fill:#FF9911;" points="246.73,306.98 275.481,290.272 234.607,348.539 205.855,365.246 	"/>
	<polygon style="fill:#FFEB9A;" points="184.08,270.809 212.83,254.101 275.481,290.272 246.73,306.98 	"/>
	<polygon style="fill:#FEDA44;" points="261.748,397.516 146.078,512 192.202,396.347 131.232,361.147 184.08,270.809 
		246.73,306.98 205.855,365.246 	"/>
</g>
<path style="fill:#ACABB1;" d="M390.367,154.8c-3.147-1.817-6.198-3.203-9.231-4.447c0.761-4.352,1.217-9.013,1.231-14.04
	c0.131-46.427-32.492-102.956-72.896-126.282c-20.327-11.736-38.739-12.823-52.036-5.095L231.343,20.1
	c-3.45-3.178-7.095-5.945-10.888-8.135c-10.677-6.164-20.349-6.738-27.333-2.68L165,25.628c-12.988-5.048-24.617-4.612-33.506,0.554
	L78.548,56.951c0.035-0.021,0.074-0.037,0.109-0.057C67.628,63.24,60.781,76.811,60.727,96.127
	c-0.11,38.778,27.159,86.009,60.887,105.481l215.412,124.368c17.063,9.851,32.51,10.711,43.632,4.151
	c-0.053,0.031-0.1,0.076-0.153,0.106l52.945-30.769c10.969-6.375,17.771-19.929,17.825-39.193
	C451.383,221.515,424.114,174.283,390.367,154.8z"/>
<path style="fill:#C6C5CB;" d="M256.527,40.8c40.404,23.328,73.027,79.855,72.896,126.282c-0.015,5.027-0.47,9.688-1.231,14.04
	c3.033,1.243,6.084,2.629,9.231,4.446c33.747,19.484,61.016,66.715,60.906,105.471c-0.11,38.778-27.558,54.419-61.304,34.935
	L121.612,201.607c-33.728-19.473-60.997-66.704-60.887-105.481c0.109-38.756,27.558-54.397,61.284-34.925
	c2.379,1.374,4.7,2.912,7.002,4.55c0.001-0.353-0.036-0.705-0.035-1.058c0.069-24.382,17.316-34.21,38.534-21.959
	c6.926,3.999,13.386,9.87,18.996,16.797C195.87,30.666,223.701,21.848,256.527,40.8z"/>
<path style="fill:#ACABB1;" d="M338.713,260.198c-2.078-1.2-4.093-2.115-6.096-2.936c0.503-2.874,0.804-5.953,0.814-9.272
	c0.087-30.665-21.46-68-48.146-83.407c-13.426-7.752-25.587-8.469-34.37-3.365l-17.233,10.015c-2.279-2.099-4.686-3.927-7.191-5.373
	c-7.053-4.072-13.44-4.451-18.052-1.771l-18.575,10.795c-8.578-3.333-16.259-3.047-22.13,0.366l-34.97,20.322
	c0.024-0.014,0.049-0.024,0.072-0.039c-7.284,4.192-11.808,13.154-11.843,25.912c-0.073,25.612,17.938,56.808,40.214,69.668
	l142.275,82.142c11.27,6.507,21.473,7.074,28.818,2.741c-0.035,0.021-0.066,0.05-0.101,0.071l34.97-20.323
	c7.244-4.21,11.737-13.163,11.773-25.886C379.013,304.262,361.002,273.066,338.713,260.198z"/>
<path style="fill:#C6C5CB;" d="M250.315,184.904c26.686,15.407,48.233,52.742,48.146,83.407c-0.009,3.32-0.31,6.399-0.813,9.272
	c2.003,0.821,4.018,1.736,6.096,2.936c22.289,12.869,40.299,44.064,40.226,69.661c-0.073,25.612-18.201,35.942-40.49,23.073
	l-142.275-82.142c-22.277-12.862-40.287-44.056-40.214-69.668c0.073-25.597,18.201-35.928,40.478-23.067
	c1.572,0.907,3.104,1.924,4.624,3.005c0.001-0.233-0.024-0.466-0.023-0.699c0.046-16.104,11.437-22.595,25.45-14.503
	c4.575,2.641,8.841,6.518,12.546,11.094C210.252,178.21,228.634,172.386,250.315,184.904z"/>
<g>
</g>
<g>
</g>
<g>
</g>
<g>
</g>
<g>
</g>
<g>
</g>
<g>
</g>
<g>
</g>
<g>
</g>
<g>
</g>
<g>
</g>
<g>
</g>
<g>
</g>
<g>
</g>
<g>
</g>
</svg>
