<?xml version="1.0" encoding="iso-8859-1"?>
<!-- Generator: Adobe Illustrator 19.0.0, SVG Export Plug-In . SVG Version: 6.00 Build 0)  -->
<svg version="1.1" id="Layer_1" xmlns="http://www.w3.org/2000/svg" xmlns:xlink="http://www.w3.org/1999/xlink" x="0px" y="0px"
	 viewBox="0 0 512 512" style="enable-background:new 0 0 512 512;" xml:space="preserve">
<polygon style="fill:#EEBF00;" points="469.054,350.077 425.093,280.284 444.194,227.468 386.723,181.262 375.572,108.636 
	320.062,98.337 281.595,25.386 239.079,50.093 187.456,0 137.489,29.037 134.409,44.991 118.407,39.374 68.441,68.411 
	85.669,137.12 42.946,161.949 86.907,231.742 67.828,284.572 125.299,330.776 136.428,403.391 191.96,413.702 230.404,486.64 
	272.922,461.932 324.544,512 374.511,482.963 377.588,467.033 393.592,472.651 443.559,443.614 426.331,374.905 "/>
<polygon style="fill:#FECE00;" points="231.629,54.423 270.096,127.374 325.606,137.673 336.757,210.3 394.228,256.505 
	375.127,309.321 419.087,379.114 374.875,398.001 393.592,472.651 336.048,452.452 324.544,512 269.135,458.259 230.404,486.64 
	191.96,413.702 136.428,403.391 125.299,330.776 67.828,284.572 86.907,231.742 42.946,161.949 87.159,143.062 68.441,68.412 
	125.986,88.611 137.489,29.037 192.899,82.804 "/>
<path style="fill:#FFDE56;" d="M231.881,120.49c-36.153-20.872-68.91-22.81-92.563-9.065l-14.047,8.163
	c0.075-0.043,0.156-0.078,0.231-0.121c-23.484,13.516-38.06,42.416-38.177,83.56c-0.234,82.541,57.818,183.091,129.662,224.57
	c37.185,21.469,70.753,22.856,94.541,7.793c-0.664,0.421-1.309,0.873-1.989,1.268l14.047-8.163
	c23.35-13.569,37.829-42.421,37.945-83.427C361.765,262.513,303.712,161.962,231.881,120.49z"/>
<path style="fill:#FFE577;" d="M217.834,128.654c71.831,41.472,129.884,142.022,129.65,224.577
	c-0.234,82.541-58.665,115.839-130.497,74.366c-71.845-41.48-129.897-142.03-129.664-224.569
	C87.558,120.472,145.989,87.174,217.834,128.654z"/>
<g>
</g>
<g>
</g>
<g>
</g>
<g>
</g>
<g>
</g>
<g>
</g>
<g>
</g>
<g>
</g>
<g>
</g>
<g>
</g>
<g>
</g>
<g>
</g>
<g>
</g>
<g>
</g>
<g>
</g>
</svg>
